<?xml version="1.0" encoding="UTF-8"?><svg id="Ebene_2" xmlns="http://www.w3.org/2000/svg" viewBox="0 0 681.53 717.25"><defs><style>.cls-1{fill:#fff;}</style></defs><g id="Ebene_1-2"><path class="cls-1" d="m240.48,704.77h0c-16.64-16.64-16.64-43.62,0-60.26l331.37-331.37c7.37-7.37,12.2-15.45,14.45-24.28,2.25-8.81,2.25-17.41,0-25.82-2.25-8.41-6.24-15.47-11.98-21.22-6.55-6.55-13.75-10.85-21.53-12.92-7.79-2.04-15.89-1.93-24.28.31-8.42,2.26-16.1,6.87-23.07,13.83l-271.72,271.72c-20.09,20.09-41.19,34.64-63.32,43.66-22.14,9.03-44.58,11.18-67.34,6.47-22.75-4.72-44.57-17.53-65.48-38.44-16.8-16.8-27.97-36.38-33.5-58.72-5.54-22.33-5.44-44.97.31-67.94,5.73-22.94,17.6-43.44,35.65-61.49L365.88,12.48c16.64-16.64,43.62-16.64,60.26,0h0c16.64,16.64,16.64,43.62,0,60.26L107.05,391.81c-10.76,10.76-15.49,23.24-14.25,37.44.69,7.92,3.74,15.51,8.7,21.73,8.75,10.99,20.23,16.46,34.46,16.45,12.3.01,23.57-5.1,33.82-15.36L439.66,182.19c22.54-22.54,45.29-38.34,68.25-47.36,22.97-9.01,45.6-10.75,67.94-5.22,22.75,5.65,45.01,19.48,66.7,41.49,10.67,10.83,24.03,31.24,29.43,45.45,10.78,28.36,12.42,56.88,5.01,85.52-6.14,23.78-18.65,45.09-37.5,63.95l-338.74,338.74c-16.64,16.64-43.62,16.64-60.26,0Z"/></g></svg>