<?xml version="1.0" encoding="UTF-8"?><svg id="Ebene_2" xmlns="http://www.w3.org/2000/svg" viewBox="0 0 445.74 114.4"><defs><style>.cls-1{fill:#fff;}</style></defs><g id="Ebene_1-2"><path class="cls-1" d="m0,72.56V6.73h21.94v32.92c2.83-2.83,6.07-5.02,9.73-6.58,3.66-1.56,7.58-2.34,11.78-2.34,6.05,0,11.7,1.1,16.97,3.29,5.27,2.19,9.85,5.19,13.75,9,3.9,3.8,7,8.24,9.29,13.31,2.29,5.07,3.44,10.48,3.44,16.24s-1.15,11.17-3.44,16.24c-2.29,5.07-5.39,9.51-9.29,13.31-3.9,3.8-8.48,6.8-13.75,9-5.27,2.19-10.92,3.29-16.97,3.29C19.8,113.47,0,96.7,0,72.56Zm43.01,21.94c3.02,0,5.87-.59,8.56-1.76,2.68-1.17,5-2.73,6.95-4.68,1.95-1.95,3.51-4.27,4.68-6.95,1.17-2.68,1.76-5.53,1.76-8.56s-.59-5.87-1.76-8.56c-1.17-2.68-2.73-5-4.68-6.95-1.95-1.95-4.27-3.51-6.95-4.68-2.68-1.17-5.54-1.76-8.56-1.76s-5.88.59-8.56,1.76c-2.68,1.17-5,2.73-6.95,4.68-1.95,1.95-3.51,4.27-4.68,6.95-1.17,2.68-1.76,5.54-1.76,8.56s.59,5.88,1.76,8.56c1.17,2.68,2.73,5,4.68,6.95,1.95,1.95,4.27,3.51,6.95,4.68,2.68,1.17,5.53,1.76,8.56,1.76Z"/><path class="cls-1" d="m124.05,0c1.76,0,3.39.34,4.9,1.02,1.51.68,2.83,1.59,3.95,2.71,1.12,1.12,2.02,2.44,2.71,3.95.68,1.51,1.02,3.15,1.02,4.9s-.34,3.39-1.02,4.9c-.68,1.51-1.59,2.85-2.71,4.02-1.12,1.17-2.44,2.07-3.95,2.71-1.51.64-3.15.95-4.9.95-3.51,0-6.49-1.22-8.92-3.66-2.44-2.44-3.66-5.41-3.66-8.92,0-1.76.32-3.39.95-4.9.63-1.51,1.54-2.83,2.71-3.95,1.17-1.12,2.51-2.02,4.02-2.71,1.51-.68,3.15-1.02,4.9-1.02Zm-10.97,33.06h21.94v79h-21.94V33.06Z"/><path class="cls-1" d="m203.34,65.54c2.93.29,5.78.98,8.56,2.05,2.78,1.07,5.27,2.54,7.46,4.39,2.19,1.85,3.97,4.07,5.34,6.66,1.36,2.59,2.05,5.54,2.05,8.85,0,4.19-.88,7.97-2.63,11.34-1.76,3.36-4.12,6.19-7.1,8.48-2.98,2.29-6.39,4.05-10.24,5.27-3.85,1.22-7.92,1.83-12.22,1.83s-8.24-.61-12.14-1.83c-3.9-1.22-7.34-2.97-10.31-5.27-2.98-2.29-5.34-5.12-7.09-8.48-1.76-3.36-2.63-7.14-2.63-11.34h21.94c0,3.32,1.1,5.56,3.29,6.73,2.19,1.17,4.51,1.76,6.95,1.76s4.75-.63,6.95-1.9c2.19-1.27,3.29-3.17,3.29-5.71,0-1.85-1.07-3.51-3.22-4.97-2.15-1.46-4.88-2.44-8.19-2.93-3.8-.49-7.53-1.41-11.19-2.78-3.66-1.36-6.88-3.07-9.66-5.12-2.78-2.05-5.02-4.41-6.73-7.1-1.71-2.68-2.56-5.58-2.56-8.7,0-4,.83-7.61,2.49-10.83,1.66-3.22,3.92-5.95,6.8-8.19,2.88-2.24,6.22-3.97,10.02-5.19,3.8-1.22,7.8-1.83,12-1.83s8.31.61,12.07,1.83c3.75,1.22,7.07,2.98,9.95,5.27,2.88,2.29,5.14,5.1,6.8,8.41,1.66,3.32,2.49,7.12,2.49,11.41h-21.94c0-1.66-.27-3.05-.8-4.17-.54-1.12-1.24-2-2.12-2.63-.88-.63-1.88-1.07-3-1.32-1.12-.24-2.27-.37-3.44-.37-2.44,0-4.61.51-6.51,1.54-1.9,1.02-2.85,2.85-2.85,5.49,0,1.17.54,2.27,1.61,3.29,1.07,1.02,2.49,1.95,4.24,2.78,1.76.83,3.71,1.51,5.85,2.05,2.14.54,4.29.95,6.44,1.24Z"/><path class="cls-1" d="m252.79,6.73h21.94v31.01c2.54-2.24,5.41-3.97,8.63-5.19,3.22-1.22,6.68-1.83,10.39-1.83,6.05,0,11.58,1.1,16.6,3.29,5.02,2.19,9.34,5.19,12.95,9,3.61,3.8,6.41,8.24,8.41,13.31,2,5.07,3,10.48,3,16.24v39.5h-21.94v-39.5c0-3.02-.42-5.87-1.24-8.56-.83-2.68-2.05-5-3.66-6.95-1.61-1.95-3.61-3.51-6-4.68-2.39-1.17-5.1-1.76-8.12-1.76s-5.73.56-8.12,1.68c-2.39,1.12-4.39,2.68-6,4.68-1.61,2-2.83,4.32-3.66,6.95-.83,2.63-1.24,5.46-1.24,8.48v39.64h-21.94V6.73Z"/><path class="cls-1" d="m402.3,30.72c6.05,0,11.7,1.1,16.97,3.29,5.27,2.19,9.85,5.19,13.75,9,3.9,3.8,7,8.24,9.29,13.31,2.29,5.07,3.44,10.48,3.44,16.24v39.5h-20.48v-9.8c-2.54,3.71-5.8,6.66-9.8,8.85-4,2.19-8.39,3.29-13.17,3.29-5.95,0-11.58-1.1-16.9-3.29-5.32-2.19-9.92-5.19-13.82-9-3.9-3.8-7-8.24-9.29-13.31-2.29-5.07-3.44-10.48-3.44-16.24s1.15-11.17,3.44-16.24c2.29-5.07,5.39-9.51,9.29-13.31,3.9-3.8,8.51-6.8,13.82-9,5.31-2.19,10.95-3.29,16.9-3.29Zm.44,63.78c3.02,0,5.87-.59,8.56-1.76,2.68-1.17,5-2.73,6.95-4.68,1.95-1.95,3.51-4.27,4.68-6.95,1.17-2.68,1.76-5.53,1.76-8.56s-.59-5.87-1.76-8.56c-1.17-2.68-2.73-5-4.68-6.95-1.95-1.95-4.27-3.51-6.95-4.68-2.68-1.17-5.54-1.76-8.56-1.76s-5.88.59-8.56,1.76c-2.68,1.17-5,2.73-6.95,4.68-1.95,1.95-3.51,4.27-4.68,6.95-1.17,2.68-1.76,5.54-1.76,8.56s.59,5.88,1.76,8.56c1.17,2.68,2.73,5,4.68,6.95,1.95,1.95,4.27,3.51,6.95,4.68,2.68,1.17,5.53,1.76,8.56,1.76Z"/></g></svg>