<?xml version="1.0" encoding="UTF-8"?><svg id="Ebene_2" xmlns="http://www.w3.org/2000/svg" viewBox="0 0 140.46 35.62"><g id="Ebene_1-2"><path d="m12.72,35.62c-2.5,0-4.7-.53-6.62-1.58-1.92-1.06-3.42-2.57-4.49-4.54s-1.61-4.3-1.61-6.98V0h5.52v14.26h.05c.51-.86,1.18-1.62,2.02-2.26.83-.64,1.76-1.14,2.78-1.49,1.02-.35,2.11-.53,3.26-.53,2.34,0,4.39.52,6.17,1.56,1.78,1.04,3.17,2.49,4.18,4.34,1.01,1.86,1.51,4.03,1.51,6.53,0,1.95-.3,3.74-.89,5.35-.59,1.62-1.44,3.02-2.54,4.2-1.1,1.18-2.44,2.09-4.01,2.71-1.57.62-3.34.94-5.33.94Zm0-4.7c1.41,0,2.66-.34,3.74-1.03,1.09-.69,1.94-1.64,2.54-2.86.61-1.22.91-2.62.91-4.22s-.3-2.96-.91-4.18c-.61-1.22-1.45-2.18-2.52-2.88-1.07-.7-2.31-1.06-3.72-1.06s-2.66.34-3.74,1.03c-1.09.69-1.94,1.64-2.54,2.86-.61,1.22-.91,2.62-.91,4.22s.3,3.01.91,4.22,1.46,2.17,2.54,2.86c1.09.69,2.32,1.03,3.7,1.03Z"/><path d="m33.46,7.15c-.96,0-1.79-.35-2.5-1.06-.7-.7-1.06-1.54-1.06-2.5s.35-1.79,1.06-2.5S32.5.05,33.46.05s1.83.35,2.52,1.06c.69.7,1.03,1.54,1.03,2.5s-.34,1.79-1.03,2.5c-.69.7-1.53,1.06-2.52,1.06Zm-2.74,27.89V10.56h5.52v24.48h-5.52Z"/><path d="m43.76,35.04v-4.7h28.22c.58,0,1.08-.13,1.51-.38.43-.26.77-.59,1.01-1.01s.36-.85.36-1.3c0-.51-.11-.96-.34-1.34-.22-.38-.54-.7-.96-.94-.42-.24-.9-.36-1.44-.36h-21.21c-1.57,0-2.96-.26-4.18-.77-1.22-.51-2.18-1.3-2.88-2.38s-1.06-2.42-1.06-4.06c0-1.31.33-2.51.98-3.6.66-1.09,1.54-1.97,2.66-2.64,1.12-.67,2.38-1.01,3.79-1.01h27.79v4.7h-27.26c-.74,0-1.34.23-1.82.7-.48.46-.72,1.03-.72,1.7s.24,1.2.72,1.68c.48.48,1.12.72,1.92.72h21.07c1.76,0,3.26.27,4.51.82,1.25.54,2.2,1.36,2.86,2.45.66,1.09.98,2.46.98,4.13,0,1.34-.34,2.6-1.01,3.77-.67,1.17-1.59,2.1-2.76,2.78-1.17.69-2.49,1.03-3.96,1.03h-28.8Z"/><path d="m86.07,35.04V0h5.52v13.01c.99-1.06,2.14-1.82,3.46-2.3,1.31-.48,2.64-.72,3.98-.72,2.24,0,4.15.47,5.74,1.42s2.79,2.24,3.62,3.89c.83,1.65,1.25,3.53,1.25,5.64v14.11h-5.47v-14.06c0-1.25-.3-2.34-.89-3.29-.59-.94-1.36-1.68-2.3-2.21-.94-.53-1.99-.79-3.14-.79-1.09,0-2.11.26-3.07.77-.96.51-1.73,1.23-2.3,2.16-.58.93-.86,1.98-.86,3.17v14.26h-5.52Z"/><path d="m126.2,35.62c-2.34,0-4.35-.58-6.05-1.73-1.7-1.15-3-2.7-3.91-4.63-.91-1.94-1.37-4.07-1.37-6.41s.52-4.62,1.56-6.55c1.04-1.94,2.53-3.47,4.46-4.61,1.94-1.14,4.25-1.7,6.94-1.7s4.92.57,6.79,1.7,3.31,2.67,4.32,4.61c1.01,1.94,1.51,4.09,1.51,6.46v12.29h-5.52v-4.56h-.1c-.48.9-1.1,1.74-1.87,2.52-.77.78-1.71,1.42-2.83,1.9-1.12.48-2.43.72-3.94.72Zm1.49-4.7c1.44,0,2.7-.36,3.77-1.08s1.9-1.7,2.5-2.93c.59-1.23.89-2.62.89-4.15s-.29-2.9-.86-4.1c-.58-1.2-1.39-2.16-2.45-2.88-1.06-.72-2.32-1.08-3.79-1.08s-2.85.36-3.94,1.08c-1.09.72-1.92,1.69-2.5,2.9-.58,1.22-.86,2.59-.86,4.13s.29,2.87.86,4.1c.58,1.23,1.4,2.21,2.47,2.93,1.07.72,2.38,1.08,3.91,1.08Z"/></g></svg>