<?xml version="1.0" encoding="UTF-8"?><svg id="Ebene_1" xmlns="http://www.w3.org/2000/svg" viewBox="0 0 1366 768"><defs><style>.cls-1{fill:none;stroke:#fff;stroke-miterlimit:10;}</style></defs><path class="cls-1" d="m-929.96,269.26c-6.17,366.63,35.42,846.79,318.64,992.68,195.2,100.55,375.33-24.57,689.36-24.51,264.51.05,652.93,88.91,1133.62,533.11"/><path class="cls-1" d="m-902.32,238.49c-6.17,366.63,35.42,846.79,318.64,992.68,195.2,100.55,375.33-24.57,689.36-24.51,264.51.05,652.93,88.91,1133.62,533.11"/><path class="cls-1" d="m-874.69,207.72c-6.17,366.63,35.42,846.79,318.64,992.68,195.2,100.55,375.33-24.57,689.36-24.51,264.51.05,652.93,88.91,1133.62,533.11"/><path class="cls-1" d="m-847.05,176.95c-6.17,366.63,35.42,846.79,318.64,992.68,195.2,100.55,375.33-24.57,689.36-24.51,264.51.05,652.93,88.91,1133.62,533.11"/><path class="cls-1" d="m-819.41,146.18c-6.17,366.63,35.42,846.79,318.64,992.68,195.2,100.55,375.33-24.57,689.36-24.51,264.51.05,652.93,88.91,1133.62,533.11"/><path class="cls-1" d="m-791.78,115.42c-6.17,366.63,35.42,846.79,318.64,992.68,195.2,100.55,375.33-24.57,689.36-24.51,264.51.05,652.93,88.91,1133.62,533.11"/><path class="cls-1" d="m-764.14,84.65c-6.17,366.63,35.42,846.79,318.64,992.68,195.2,100.55,375.33-24.57,689.36-24.51,264.51.05,652.93,88.91,1133.62,533.11"/><path class="cls-1" d="m-736.51,53.88c-6.17,366.63,35.42,846.79,318.64,992.68,195.2,100.55,375.33-24.57,689.36-24.51,264.51.05,652.93,88.91,1133.62,533.11"/><path class="cls-1" d="m-708.87,23.11c-6.17,366.63,35.42,846.79,318.64,992.68,195.2,100.55,375.33-24.57,689.36-24.51,264.51.05,652.93,88.91,1133.62,533.11"/><path class="cls-1" d="m-681.23-7.66c-6.17,366.63,35.42,846.79,318.64,992.68,195.2,100.55,375.33-24.57,689.36-24.51,264.51.05,652.93,88.91,1133.62,533.11"/><path class="cls-1" d="m-653.6-38.42c-6.17,366.63,35.42,846.79,318.64,992.68,195.2,100.55,375.33-24.57,689.36-24.51,264.51.05,652.93,88.91,1133.62,533.11"/><path class="cls-1" d="m-625.96-69.19c-6.17,366.63,35.42,846.79,318.64,992.68,195.2,100.55,375.33-24.57,689.36-24.51,264.51.05,652.93,88.91,1133.62,533.11"/><path class="cls-1" d="m-598.33-99.96c-6.17,366.63,35.42,846.79,318.64,992.68,195.2,100.55,375.33-24.57,689.36-24.51,264.51.05,652.93,88.91,1133.62,533.11"/><path class="cls-1" d="m-570.69-130.73c-6.17,366.63,35.42,846.79,318.64,992.68,195.2,100.55,375.33-24.57,689.36-24.51,264.51.05,652.93,88.91,1133.62,533.11"/><path class="cls-1" d="m-543.05-161.49c-6.17,366.63,35.42,846.79,318.64,992.68,195.2,100.55,375.33-24.57,689.36-24.51,264.51.05,652.93,88.91,1133.62,533.11"/><path class="cls-1" d="m-515.42-192.26c-6.17,366.63,35.42,846.79,318.64,992.68,195.2,100.55,375.33-24.57,689.36-24.51,264.51.05,652.93,88.91,1133.62,533.11"/><path class="cls-1" d="m-487.78-223.03c-6.17,366.63,35.42,846.79,318.64,992.68,195.2,100.55,375.33-24.57,689.36-24.51,264.51.05,652.93,88.91,1133.62,533.11"/><path class="cls-1" d="m-460.15-253.8c-6.17,366.63,35.42,846.79,318.64,992.68,195.2,100.55,375.33-24.57,689.36-24.51,264.51.05,652.93,88.91,1133.62,533.11"/><path class="cls-1" d="m-432.51-284.57c-6.17,366.63,35.42,846.79,318.64,992.68,195.2,100.55,375.33-24.57,689.36-24.51,264.51.05,652.93,88.91,1133.62,533.11"/><path class="cls-1" d="m-404.87-315.33c-6.17,366.63,35.42,846.79,318.64,992.68,195.2,100.55,375.33-24.57,689.36-24.51,264.51.05,652.93,88.91,1133.62,533.11"/><path class="cls-1" d="m-377.24-346.1c-6.17,366.63,35.42,846.79,318.64,992.68,195.2,100.55,375.33-24.57,689.36-24.51,264.51.05,652.93,88.91,1133.62,533.11"/><path class="cls-1" d="m-349.6-376.87C-355.78-10.24-314.18,469.92-30.96,615.81c195.2,100.55,375.33-24.57,689.36-24.51,264.51.05,652.93,88.91,1133.62,533.11"/><path class="cls-1" d="m-321.97-407.64C-328.14-41-286.55,439.15-3.33,585.04c195.2,100.55,375.33-24.57,689.36-24.51,264.51.05,652.93,88.91,1133.62,533.11"/><path class="cls-1" d="m-294.33-438.41c-6.17,366.63,35.42,846.79,318.64,992.68,195.2,100.55,375.33-24.57,689.36-24.51,264.51.05,652.93,88.91,1133.62,533.11"/><path class="cls-1" d="m-266.7-469.17c-6.17,366.63,35.42,846.79,318.64,992.68,195.2,100.55,375.33-24.57,689.36-24.51,264.51.05,652.93,88.91,1133.62,533.11"/><path class="cls-1" d="m-239.06-499.94c-6.17,366.63,35.42,846.79,318.64,992.68,195.2,100.55,375.33-24.57,689.36-24.51,264.51.05,652.93,88.91,1133.62,533.11"/><path class="cls-1" d="m-211.42-530.71c-6.17,366.63,35.42,846.79,318.64,992.68,195.2,100.55,375.33-24.57,689.36-24.51,264.51.05,652.93,88.91,1133.62,533.11"/><path class="cls-1" d="m-183.79-561.48c-6.17,366.63,35.42,846.79,318.64,992.68,195.2,100.55,375.33-24.57,689.36-24.51,264.51.05,652.93,88.91,1133.62,533.11"/><path class="cls-1" d="m-156.15-592.24c-6.17,366.63,35.42,846.79,318.64,992.68,195.2,100.55,375.33-24.57,689.36-24.51,264.51.05,652.93,88.91,1133.62,533.11"/><path class="cls-1" d="m-128.52-623.01c-6.17,366.63,35.42,846.79,318.64,992.68,195.2,100.55,375.33-24.57,689.36-24.51,264.51.05,652.93,88.91,1133.62,533.11"/><path class="cls-1" d="m-100.88-653.78c-6.17,366.63,35.42,846.79,318.64,992.68,195.2,100.55,375.33-24.57,689.36-24.51,264.51.05,652.93,88.91,1133.62,533.11"/><path class="cls-1" d="m-73.24-684.55c-6.17,366.63,35.42,846.79,318.64,992.68,195.2,100.55,375.33-24.57,689.36-24.51,264.51.05,652.93,88.91,1133.62,533.11"/><path class="cls-1" d="m-45.61-715.32C-51.78-348.68-10.19,131.47,273.03,277.36c195.2,100.55,375.33-24.57,689.36-24.51,264.51.05,652.93,88.91,1133.62,533.11"/><path class="cls-1" d="m-17.97-746.08C-24.14-379.45,17.45,100.7,300.67,246.6c195.2,100.55,375.33-24.57,689.36-24.51,264.51.05,652.93,88.91,1133.62,533.11"/><path class="cls-1" d="m9.66-776.85C3.49-410.22,45.09,69.93,328.3,215.83c195.2,100.55,375.33-24.57,689.36-24.51,264.51.05,652.93,88.91,1133.62,533.11"/><path class="cls-1" d="m37.3-807.62C31.13-440.99,72.72,39.17,355.94,185.06c195.2,100.55,375.33-24.57,689.36-24.51,264.51.05,652.93,88.91,1133.62,533.11"/><path class="cls-1" d="m64.94-838.39C58.76-471.75,100.36,8.4,383.57,154.29c195.2,100.55,375.33-24.57,689.36-24.51,264.51.05,652.93,88.91,1133.62,533.11"/><path class="cls-1" d="m92.57-869.16C86.4-502.52,127.99-22.37,411.21,123.53c195.2,100.55,375.33-24.57,689.36-24.51,264.51.05,652.93,88.91,1133.62,533.11"/><path class="cls-1" d="m120.21-899.92c-6.17,366.63,35.42,846.79,318.64,992.68,195.2,100.55,375.33-24.57,689.36-24.51,264.51.05,652.93,88.91,1133.62,533.11"/><path class="cls-1" d="m147.84-930.69c-6.17,366.63,35.42,846.79,318.64,992.68,195.2,100.55,375.33-24.57,689.36-24.51,264.51.05,652.93,88.91,1133.62,533.11"/><path class="cls-1" d="m175.48-961.46c-6.17,366.63,35.42,846.79,318.64,992.68,195.2,100.55,375.33-24.57,689.36-24.51,264.51.05,652.93,88.91,1133.62,533.11"/><path class="cls-1" d="m203.12-992.23C196.94-625.59,238.54-145.44,521.75.45c195.2,100.55,375.33-24.57,689.36-24.51,264.51.05,652.93,88.91,1133.62,533.11"/><path class="cls-1" d="m230.75-1022.99c-6.17,366.63,35.42,846.79,318.64,992.68,195.2,100.55,375.33-24.57,689.36-24.51,264.51.05,652.93,88.91,1133.62,533.11"/><path class="cls-1" d="m258.39-1053.76c-6.17,366.63,35.42,846.79,318.64,992.68,195.2,100.55,375.33-24.57,689.36-24.51,264.51.05,652.93,88.91,1133.62,533.11"/><path class="cls-1" d="m286.02-1084.53c-6.17,366.63,35.42,846.79,318.64,992.68,195.2,100.55,375.33-24.57,689.36-24.51,264.51.05,652.93,88.91,1133.62,533.11"/><path class="cls-1" d="m313.66-1115.3c-6.17,366.63,35.42,846.79,318.64,992.68,195.2,100.55,375.33-24.57,689.36-24.51,264.51.05,652.93,88.91,1133.62,533.11"/><path class="cls-1" d="m341.3-1146.07c-6.17,366.63,35.42,846.79,318.64,992.68,195.2,100.55,375.33-24.57,689.36-24.51,264.51.05,652.93,88.91,1133.62,533.11"/><path class="cls-1" d="m368.93-1176.83c-6.17,366.63,35.42,846.79,318.64,992.68,195.2,100.55,375.33-24.57,689.36-24.51,264.51.05,652.93,88.91,1133.62,533.11"/><path class="cls-1" d="m396.57-1207.6c-6.17,366.63,35.42,846.79,318.64,992.68,195.2,100.55,375.33-24.57,689.36-24.51,264.51.05,652.93,88.91,1133.62,533.11"/><path class="cls-1" d="m424.2-1238.37c-6.17,366.63,35.42,846.79,318.64,992.68,195.2,100.55,375.33-24.57,689.36-24.51,264.51.05,652.93,88.91,1133.62,533.11"/><path class="cls-1" d="m451.84-1269.14c-6.17,366.63,35.42,846.79,318.64,992.68,195.2,100.55,375.33-24.57,689.36-24.51,264.51.05,652.93,88.91,1133.62,533.11"/><path class="cls-1" d="m479.47-1299.91c-6.17,366.63,35.42,846.79,318.64,992.68,195.2,100.55,375.33-24.57,689.36-24.51,264.51.05,652.93,88.91,1133.62,533.11"/></svg>